<svg width="23" height="23" viewBox="0 0 23 23" fill="none" xmlns="http://www.w3.org/2000/svg">
<rect width="6.56382" height="7.15549" rx="0.928571" transform="matrix(0.710449 0.703749 -0.710449 0.703749 14.4609 0)" fill="#D5F4FC"/>
<rect width="6.56382" height="1.39681" rx="0.698404" transform="matrix(0.710449 0.703749 -0.710449 0.703749 12.9648 1.3457)" fill="#99CAFC"/>
<path d="M12.8282 20.3894H19.351C20.3767 20.3894 21.2081 19.5579 21.2081 18.5322V16.2911C21.2081 14.2397 19.5452 12.5768 17.4939 12.5768H15.2929V9.64706C15.5644 9.37813 15.5644 8.9394 15.2929 8.67048L11.1776 4.59395C10.4538 3.87697 9.28745 3.87697 8.56364 4.59395L3.84141 9.27166C3.09522 10.0108 3.10997 11.2212 3.87396 11.9419L12.8282 20.3894Z" fill="#75B7F9"/>
<path d="M3.46094 10.623L12.8267 19.9005H20.7137" stroke="#BBDDFF" stroke-width="1.85714" stroke-linecap="round" stroke-linejoin="round"/>
<path d="M12.3359 10.1353H14.8006" stroke="#1C5C8C" stroke-width="1.85714" stroke-linecap="round" stroke-linejoin="round"/>
<path d="M13.3945 13.501L15.6975 12.6295" stroke="#1C5C8C" stroke-width="1.85714" stroke-linecap="round" stroke-linejoin="round"/>
<path d="M1.33594 21.6665L21.9193 21.6665" stroke="#D5F4FC" stroke-width="1.85714" stroke-linecap="round" stroke-linejoin="round"/>
</svg>
