<svg width="48" height="48" viewBox="0 0 48 48" fill="none" xmlns="http://www.w3.org/2000/svg">
<path d="M27.942 27.6507C27.82 27.0714 27.6121 26.5116 27.3244 25.988C27.0136 25.4084 26.6513 24.8552 26.2413 24.3343C26.018 24.0452 25.7663 23.7787 25.5668 23.5302C25.3673 23.2817 25.1772 23.1145 24.9824 22.9247C24.7877 22.7349 24.5502 22.5316 24.3174 22.3374C24.0846 22.1431 23.7949 21.9172 23.5051 21.7093C22.9665 21.3156 22.3945 20.965 21.7949 20.6611C21.2571 20.3826 20.6793 20.1802 20.08 20.0602C19.5764 19.9523 19.0503 19.99 18.5694 20.1686C18.0772 20.3866 17.6962 20.7815 17.5101 21.2666L12.2229 32.3857C12.0336 32.7606 11.9626 33.1796 12.0186 33.592C12.0698 33.9421 12.2361 34.2679 12.4936 34.5228C12.759 34.7687 13.1004 34.9271 13.4675 34.9746C13.8921 35.0388 14.3273 34.9806 14.7168 34.8074L26.7259 30.0227C26.9691 29.944 27.1926 29.8183 27.3822 29.6534C27.5719 29.4886 27.7237 29.2882 27.828 29.0649C28.0083 28.6137 28.0478 28.1227 27.942 27.6507ZM26.0845 28.3419C25.9373 28.4865 25.657 28.5001 25.2342 28.3826C24.687 28.2025 24.1713 27.9451 23.7046 27.619C22.9966 27.147 22.3366 26.613 21.7332 26.0241C21.1174 25.453 20.5591 24.8283 20.0658 24.1581C19.7227 23.7127 19.4521 23.2208 19.263 22.6988C19.1395 22.2967 19.149 22.0256 19.2962 21.8856C19.4435 21.7455 19.719 21.7409 20.1371 21.8584C20.685 22.0402 21.202 22.2975 21.6714 22.622C22.1253 22.9253 22.5585 23.2558 22.9683 23.6115C23.1916 23.8012 23.4148 24 23.6428 24.2169C23.8709 24.4337 24.0466 24.61 24.2319 24.7997C24.6236 25.206 24.987 25.6361 25.3197 26.0874C25.6557 26.5339 25.9228 27.0238 26.113 27.5422C26.2366 27.9398 26.2271 28.2064 26.0845 28.3419Z" fill="#FF87A4"/>
<path fill-rule="evenodd" clip-rule="evenodd" d="M37.721 17.6222C37.8338 17.8199 37.9052 18.0378 37.931 18.2632C37.9568 18.4885 37.9364 18.7167 37.8712 18.9341C37.806 19.1516 37.6972 19.354 37.5512 19.5292C37.4053 19.7044 37.2252 19.849 37.0215 19.9543C35.8178 20.5803 33.9852 19.9213 31.19 18.8603C31.19 18.8603 31.0597 18.8228 31.029 18.7606C30.9984 18.6984 31.0312 18.5648 31.0312 18.5648C31.7571 15.728 32.2322 13.8521 33.4411 13.2262C33.6445 13.1217 33.867 13.0584 34.0955 13.04C34.3241 13.0216 34.5541 13.0484 34.772 13.119C34.9899 13.1896 35.1913 13.3024 35.3644 13.4508C35.5374 13.5992 35.6786 13.7803 35.7797 13.9834C35.9115 14.232 35.988 14.5056 36.0039 14.7857C36.0197 15.0659 35.9747 15.3462 35.8718 15.6077C35.8321 15.709 35.8148 15.8175 35.8208 15.9259C35.8268 16.0344 35.8561 16.1403 35.9068 16.2368C35.9593 16.3342 36.033 16.419 36.1226 16.4851C36.2123 16.5511 36.3156 16.5967 36.4253 16.6186C36.7012 16.6836 36.96 16.8057 37.1844 16.977C37.4087 17.1483 37.5935 17.3647 37.7264 17.6119" fill="#FF87A4"/>
<path d="M21.0074 22.1925C21.53 21.2226 21.7824 20.247 21.7475 19.3311C21.7126 18.4153 21.3913 17.5805 20.8053 16.8829" stroke="#FFD6D5" stroke-width="2" stroke-miterlimit="10" stroke-linecap="round"/>
<path d="M25.9465 26.6818C26.5688 26.3511 27.2559 26.1565 27.9617 26.111C28.6674 26.0655 29.3754 26.1702 30.0378 26.4181" stroke="#FFD6D5" stroke-width="2" stroke-miterlimit="10" stroke-linecap="round"/>
<path d="M26.2549 18.9007C26.1919 18.8425 26.1512 18.764 26.1401 18.679C26.0558 18.2282 25.9716 17.8538 25.895 17.5481C25.8287 17.2793 25.7229 17.0218 25.581 16.7839C25.4611 16.5965 25.3017 16.4374 25.1138 16.3178C24.8894 16.1899 24.6466 16.0972 24.3939 16.0427C24.1105 15.974 23.7506 15.9052 23.3294 15.8441C23.2379 15.8337 23.1534 15.7902 23.0919 15.7218C23.0622 15.6915 23.0388 15.6557 23.023 15.6164C23.0073 15.577 22.9994 15.535 23 15.4926C22.9992 15.4048 23.0321 15.32 23.0919 15.2556C23.1534 15.1872 23.2379 15.1437 23.3294 15.1334C23.6977 15.097 24.0634 15.0383 24.4246 14.9576C24.6943 14.9041 24.9531 14.806 25.1904 14.6672C25.3824 14.5495 25.5428 14.3869 25.6576 14.1935C25.7929 13.955 25.8911 13.6973 25.9486 13.4293C26.0252 13.1313 26.0941 12.7569 26.163 12.3213C26.1695 12.2328 26.2108 12.1503 26.2779 12.0921C26.3089 12.0611 26.346 12.037 26.3869 12.0212C26.4278 12.0054 26.4715 11.9983 26.5153 12.0004C26.5566 11.9999 26.5976 12.0078 26.6358 12.0236C26.674 12.0393 26.7085 12.0626 26.7374 12.0921C26.8044 12.1514 26.8479 12.2328 26.86 12.3213C26.9227 12.6996 27.0045 13.0745 27.1051 13.4446C27.1675 13.7134 27.2708 13.9711 27.4114 14.2088C27.5313 14.3962 27.6907 14.5553 27.8785 14.6749C28.1031 14.8043 28.3457 14.8996 28.5985 14.9576C28.8895 15.0264 29.2495 15.0875 29.6707 15.1487C29.7605 15.1641 29.8434 15.2068 29.9081 15.2709C29.9679 15.3353 30.0008 15.42 30 15.5078C29.9993 15.5953 29.9666 15.6796 29.9081 15.7447C29.8468 15.8122 29.7617 15.8533 29.6707 15.8594C29.3002 15.9017 28.9321 15.9629 28.5678 16.0427C28.2979 16.0914 28.0386 16.1871 27.802 16.3255C27.6096 16.446 27.4494 16.6112 27.3348 16.8069C27.1972 17.0451 27.0965 17.3028 27.0361 17.571C26.9672 17.8767 26.8906 18.2435 26.8293 18.6867C26.8182 18.7717 26.7775 18.8501 26.7145 18.9083C26.6523 18.9668 26.5702 18.9996 26.4847 19C26.3984 18.9968 26.3163 18.9613 26.2549 18.9007Z" fill="#FF87A4"/>
<path d="M27.86 23.9432C27.8239 23.91 27.8007 23.8652 27.7943 23.8166C27.7462 23.559 27.698 23.345 27.6543 23.1703C27.6164 23.0168 27.5559 22.8696 27.4748 22.7337C27.4063 22.6266 27.3152 22.5357 27.2079 22.4673C27.0796 22.3942 26.9409 22.3412 26.7965 22.3101C26.6346 22.2708 26.4289 22.2315 26.1882 22.1966C26.1359 22.1907 26.0876 22.1658 26.0525 22.1267C26.0355 22.1094 26.0222 22.089 26.0132 22.0665C26.0041 22.044 25.9997 22.02 26 21.9958C25.9996 21.9456 26.0184 21.8971 26.0525 21.8604C26.0876 21.8213 26.1359 21.7964 26.1882 21.7905C26.3987 21.7697 26.6077 21.7362 26.814 21.6901C26.9682 21.6595 27.1161 21.6034 27.2517 21.5241C27.3614 21.4569 27.453 21.364 27.5186 21.2534C27.596 21.1171 27.652 20.9699 27.6849 20.8168C27.7287 20.6465 27.7681 20.4325 27.8074 20.1836C27.8111 20.133 27.8347 20.0859 27.8731 20.0526C27.8908 20.0349 27.912 20.0211 27.9354 20.0121C27.9587 20.0031 27.9837 19.999 28.0088 20.0002C28.0324 20 28.0558 20.0045 28.0776 20.0135C28.0994 20.0225 28.1191 20.0358 28.1357 20.0526C28.1739 20.0865 28.1988 20.133 28.2057 20.1836C28.2415 20.3998 28.2883 20.614 28.3458 20.8255C28.3814 20.9791 28.4405 21.1264 28.5208 21.2622C28.5893 21.3693 28.6804 21.4602 28.7877 21.5285C28.9161 21.6024 29.0547 21.6569 29.1991 21.6901C29.3654 21.7294 29.5711 21.7643 29.8118 21.7992C29.8631 21.8081 29.9105 21.8325 29.9475 21.8691C29.9817 21.9059 30.0004 21.9543 30 22.0044C29.9996 22.0544 29.9809 22.1026 29.9475 22.1398C29.9125 22.1784 29.8638 22.2019 29.8118 22.2053C29.6001 22.2295 29.3898 22.2645 29.1816 22.3101C29.0274 22.3379 28.8792 22.3926 28.744 22.4717C28.6341 22.5406 28.5425 22.635 28.477 22.7468C28.3984 22.8829 28.3409 23.0302 28.3064 23.1835C28.267 23.3581 28.2232 23.5677 28.1882 23.821C28.1818 23.8695 28.1586 23.9143 28.1226 23.9476C28.087 23.9811 28.0401 23.9998 27.9913 24C27.9419 23.9982 27.895 23.9779 27.86 23.9432Z" fill="#FF87A4"/>
</svg>
