<svg width="27" height="25.000000000000004" xmlns="http://www.w3.org/2000/svg" fill="none">

 <g>
  <title>Layer 1</title>
  <path id="svg_1" fill="#FF87A4" d="m16.2207,16.6507c-0.122,-0.5793 -0.3299,-1.1391 -0.6176,-1.6627c-0.3108,-0.5796 -0.6731,-1.1328 -1.0831,-1.6537c-0.2233,-0.2891 -0.475,-0.5556 -0.6745,-0.8041c-0.1995,-0.2485 -0.3896,-0.4157 -0.5844,-0.6055c-0.1947,-0.1898 -0.4322,-0.3931 -0.665,-0.5873c-0.2328,-0.1943 -0.5225,-0.4202 -0.8123,-0.6281c-0.5386,-0.3937 -1.1106,-0.7443 -1.7102,-1.0482c-0.5378,-0.2785 -1.1156,-0.4809 -1.7149,-0.6009c-0.5036,-0.1079 -1.0297,-0.0702 -1.5106,0.1084c-0.4922,0.218 -0.8732,0.6129 -1.0593,1.098l-5.2872,11.1191c-0.1893,0.3749 -0.2603,0.7939 -0.2043,1.2063c0.0512,0.3501 0.2175,0.6759 0.475,0.9308c0.2654,0.2459 0.6068,0.4043 0.9739,0.4518c0.4246,0.0642 0.8598,0.006 1.2493,-0.1672l12.0091,-4.7847c0.2432,-0.0787 0.4667,-0.2044 0.6563,-0.3693c0.1897,-0.1648 0.3415,-0.3652 0.4458,-0.5885c0.1803,-0.4512 0.2198,-0.9422 0.114,-1.4142zm-1.8575,0.6912c-0.1472,0.1446 -0.4275,0.1582 -0.8503,0.0407c-0.5472,-0.1801 -1.0629,-0.4375 -1.5296,-0.7636c-0.708,-0.472 -1.368,-1.006 -1.9714,-1.5949c-0.6158,-0.5711 -1.1741,-1.1958 -1.6674,-1.866c-0.3431,-0.4454 -0.6137,-0.9373 -0.8028,-1.4593c-0.1235,-0.4021 -0.114,-0.6732 0.0332,-0.8132c0.1473,-0.1401 0.4228,-0.1447 0.8409,-0.0272c0.5479,0.1818 1.0649,0.4391 1.5343,0.7636c0.4539,0.3033 0.8871,0.6338 1.2969,0.9895c0.2233,0.1897 0.4465,0.3885 0.6745,0.6054c0.2281,0.2168 0.4038,0.3931 0.5891,0.5828c0.3917,0.4063 0.7551,0.8364 1.0878,1.2877c0.336,0.4465 0.6031,0.9364 0.7933,1.4548c0.1236,0.3976 0.1141,0.6642 -0.0285,0.7997z"/>
  <path id="svg_2" fill="#FF87A4" d="m25.9997,6.6222c0.1128,0.1977 0.1842,0.4156 0.21,0.641c0.0258,0.2253 0.0054,0.4535 -0.0598,0.6709c-0.0652,0.2175 -0.174,0.4199 -0.32,0.5951c-0.1459,0.1752 -0.326,0.3198 -0.5297,0.4251c-1.2037,0.626 -3.0363,-0.033 -5.8315,-1.094c0,0 -0.1303,-0.0375 -0.161,-0.0997c-0.0306,-0.0622 0.0022,-0.1958 0.0022,-0.1958c0.7259,-2.8368 1.201,-4.7127 2.4099,-5.3386c0.2034,-0.1045 0.4259,-0.1678 0.6544,-0.1862c0.2286,-0.0184 0.4586,0.0084 0.6765,0.079c0.2179,0.0706 0.4193,0.1834 0.5924,0.3318c0.173,0.1484 0.3142,0.3295 0.4153,0.5326c0.1318,0.2486 0.2083,0.5222 0.2242,0.8023c0.0158,0.2802 -0.0292,0.5605 -0.1321,0.822c-0.0397,0.1013 -0.057,0.2098 -0.051,0.3182c0.006,0.1085 0.0353,0.2144 0.086,0.3109c0.0525,0.0974 0.1262,0.1822 0.2158,0.2483c0.0897,0.066 0.193,0.1116 0.3027,0.1335c0.2759,0.065 0.5347,0.1871 0.7591,0.3584c0.2243,0.1713 0.4091,0.3877 0.542,0.6349" clip-rule="evenodd" fill-rule="evenodd"/>
  <path id="svg_3" stroke-linecap="round" stroke-miterlimit="10" stroke-width="2" stroke="#FFD6D5" d="m9.2861,11.1925c0.5226,-0.9699 0.775,-1.9455 0.7401,-2.8614c-0.0349,-0.9158 -0.3562,-1.7506 -0.9422,-2.4482"/>
  <path id="svg_4" stroke-linecap="round" stroke-miterlimit="10" stroke-width="2" stroke="#FFD6D5" d="m14.2252,15.6818c0.6223,-0.3307 1.3094,-0.5253 2.0152,-0.5708c0.7057,-0.0455 1.4137,0.0592 2.0761,0.3071"/>
  <path id="svg_5" fill="#FF87A4" d="m14.5336,7.9007c-0.063,-0.0582 -0.1037,-0.1367 -0.1148,-0.2217c-0.0843,-0.4508 -0.1685,-0.8252 -0.2451,-1.1309c-0.0663,-0.2688 -0.1721,-0.5263 -0.314,-0.7642c-0.1199,-0.1874 -0.2793,-0.3465 -0.4672,-0.4661c-0.2244,-0.1279 -0.4672,-0.2206 -0.7199,-0.2751c-0.2834,-0.0687 -0.6433,-0.1375 -1.0645,-0.1986c-0.0915,-0.0104 -0.176,-0.0539 -0.2375,-0.1223c-0.0297,-0.0303 -0.0531,-0.0661 -0.0689,-0.1054c-0.0157,-0.0394 -0.0236,-0.0814 -0.023,-0.1238c-0.0008,-0.0878 0.0321,-0.1726 0.0919,-0.237c0.0615,-0.0684 0.146,-0.1119 0.2375,-0.1222c0.3683,-0.0364 0.734,-0.0951 1.0952,-0.1758c0.2697,-0.0535 0.5285,-0.1516 0.7658,-0.2904c0.192,-0.1177 0.3524,-0.2803 0.4672,-0.4737c0.1353,-0.2385 0.2335,-0.4962 0.291,-0.7642c0.0766,-0.298 0.1455,-0.6724 0.2144,-1.108c0.0065,-0.0885 0.0478,-0.171 0.1149,-0.2292c0.031,-0.031 0.0681,-0.0551 0.109,-0.0709c0.0409,-0.0158 0.0846,-0.0229 0.1284,-0.0208c0.0413,-0.0005 0.0823,0.0074 0.1205,0.0232c0.0382,0.0157 0.0727,0.039 0.1016,0.0685c0.067,0.0593 0.1105,0.1407 0.1226,0.2292c0.0627,0.3783 0.1445,0.7532 0.2451,1.1233c0.0624,0.2688 0.1657,0.5265 0.3063,0.7642c0.1199,0.1874 0.2793,0.3465 0.4671,0.4661c0.2246,0.1294 0.4672,0.2247 0.72,0.2827c0.291,0.0688 0.651,0.1299 1.0722,0.1911c0.0898,0.0154 0.1727,0.0581 0.2374,0.1222c0.0598,0.0644 0.0927,0.1491 0.0919,0.2369c-0.0007,0.0875 -0.0334,0.1718 -0.0919,0.2369c-0.0613,0.0675 -0.1464,0.1086 -0.2374,0.1147c-0.3705,0.0423 -0.7386,0.1035 -1.1029,0.1833c-0.2699,0.0487 -0.5292,0.1444 -0.7658,0.2828c-0.1924,0.1205 -0.3526,0.2857 -0.4672,0.4814c-0.1376,0.2382 -0.2383,0.4959 -0.2987,0.7641c-0.0689,0.3057 -0.1455,0.6725 -0.2068,1.1157c-0.0111,0.085 -0.0518,0.1634 -0.1148,0.2216c-0.0622,0.0585 -0.1443,0.0913 -0.2298,0.0917c-0.0863,-0.0032 -0.1684,-0.0387 -0.2298,-0.0993z"/>
  <path id="svg_6" fill="#FF87A4" d="m22.1387,16.9432c-0.0361,-0.0332 -0.0593,-0.078 -0.0657,-0.1266c-0.0481,-0.2576 -0.0963,-0.4716 -0.14,-0.6463c-0.0379,-0.1535 -0.0984,-0.3007 -0.1795,-0.4366c-0.0685,-0.1071 -0.1596,-0.198 -0.2669,-0.2664c-0.1283,-0.0731 -0.267,-0.1261 -0.4114,-0.1572c-0.1619,-0.0393 -0.3676,-0.0786 -0.6083,-0.1135c-0.0523,-0.0059 -0.1006,-0.0308 -0.1357,-0.0699c-0.017,-0.0173 -0.0303,-0.0377 -0.0393,-0.0602c-0.0091,-0.0225 -0.0135,-0.0465 -0.0132,-0.0707c-0.0004,-0.0502 0.0184,-0.0987 0.0525,-0.1354c0.0351,-0.0391 0.0834,-0.064 0.1357,-0.0699c0.2105,-0.0208 0.4195,-0.0543 0.6258,-0.1004c0.1542,-0.0306 0.3021,-0.0867 0.4377,-0.166c0.1097,-0.0672 0.2013,-0.1601 0.2669,-0.2707c0.0774,-0.1363 0.1334,-0.2835 0.1663,-0.4366c0.0438,-0.1703 0.0832,-0.3843 0.1225,-0.6332c0.0037,-0.0506 0.0273,-0.0977 0.0657,-0.131c0.0177,-0.0177 0.0389,-0.0315 0.0623,-0.0405c0.0233,-0.009 0.0483,-0.0131 0.0734,-0.0119c0.0236,-0.0002 0.047,0.0043 0.0688,0.0133c0.0218,0.009 0.0415,0.0223 0.0581,0.0391c0.0382,0.0339 0.0631,0.0804 0.07,0.131c0.0358,0.2162 0.0826,0.4304 0.1401,0.6419c0.0356,0.1536 0.0947,0.3009 0.175,0.4367c0.0685,0.1071 0.1596,0.198 0.2669,0.2663c0.1284,0.0739 0.267,0.1284 0.4114,0.1616c0.1663,0.0393 0.372,0.0742 0.6127,0.1091c0.0513,0.0089 0.0987,0.0333 0.1357,0.0699c0.0342,0.0368 0.0529,0.0852 0.0525,0.1353c-0.0004,0.05 -0.0191,0.0982 -0.0525,0.1354c-0.035,0.0386 -0.0837,0.0621 -0.1357,0.0655c-0.2117,0.0242 -0.422,0.0592 -0.6302,0.1048c-0.1542,0.0278 -0.3024,0.0825 -0.4376,0.1616c-0.1099,0.0689 -0.2015,0.1633 -0.267,0.2751c-0.0786,0.1361 -0.1361,0.2834 -0.1706,0.4367c-0.0394,0.1746 -0.0832,0.3842 -0.1182,0.6375c-0.0064,0.0485 -0.0296,0.0933 -0.0656,0.1266c-0.0356,0.0335 -0.0825,0.0522 -0.1313,0.0524c-0.0494,-0.0018 -0.0963,-0.0221 -0.1313,-0.0568z"/>
 </g>
</svg>