<svg width="23" height="24" xmlns="http://www.w3.org/2000/svg" fill="none">

 <g>
  <title>Layer 1</title>
  <rect id="svg_1" fill="#FED8AB" rx="2" height="11" width="16" y="7.47525" x="6.46535"/>
  <rect id="svg_2" fill="#FFEED9" height="1" width="16" y="11.47525" x="6.46535"/>
  <path id="svg_3" fill="#FAB15C" d="m6.46535,9.31035c0,-1.3823 1.3687,-2.3478 2.6708,-1.8842l9,3.2044c0.797,0.2838 1.3292,1.0382 1.3292,1.8842l0,9.1254c0,1.3823 -1.3687,2.3478 -2.6708,1.8842l-9,-3.2044c-0.797,-0.2838 -1.3292,-1.0382 -1.3292,-1.8842l0,-9.1254z"/>
  <circle id="svg_4" fill="#FED8AB" r="1" cy="16.47525" cx="16.46535"/>
  <circle id="svg_5" fill="#FF9900" r="6" cy="6.47525" cx="6.46535"/>
  <path id="svg_6" fill="#FEFEFE" d="m6.25525,9.39005c-0.054,-0.0498 -0.0888,-0.1171 -0.0984,-0.1899c-0.0722,-0.3865 -0.1444,-0.7074 -0.2101,-0.9694c-0.0568,-0.2304 -0.1475,-0.4511 -0.2691,-0.655c-0.1028,-0.1606 -0.2394,-0.297 -0.4005,-0.3995c-0.1924,-0.1096 -0.4005,-0.1891 -0.617,-0.2358c-0.2429,-0.0589 -0.5514,-0.1179 -0.9125,-0.1703c-0.0784,-0.0088 -0.1508,-0.0462 -0.2035,-0.1048c-0.0255,-0.026 -0.0455,-0.0566 -0.0591,-0.0904c-0.0135,-0.0337 -0.02019,-0.0697 -0.0197,-0.1061c-0.00065,-0.0752 0.0275,-0.1479 0.0788,-0.203c0.0527,-0.0587 0.1251,-0.096 0.2035,-0.1049c0.3157,-0.0312 0.6292,-0.0815 0.9388,-0.1506c0.2312,-0.0459 0.453,-0.13 0.6564,-0.2489c0.1646,-0.1009 0.302,-0.2403 0.4004,-0.4061c0.116,-0.2044 0.2002,-0.4253 0.2495,-0.655c0.0656,-0.2554 0.1247,-0.5763 0.1838,-0.9497c0.0055,-0.0759 0.0409,-0.1465 0.0985,-0.1965c0.0265,-0.0265 0.0583,-0.0472 0.0933,-0.0608c0.0351,-0.0135 0.0726,-0.0196 0.1101,-0.0178c0.0355,-0.0004 0.0706,0.0064 0.1033,0.0199c0.0327,0.0135 0.0623,0.0335 0.0871,0.0587c0.0574,0.0509 0.0947,0.1206 0.1051,0.1965c0.0537,0.3243 0.1238,0.6456 0.21,0.9628c0.0536,0.2305 0.1421,0.4513 0.2626,0.655c0.1027,0.1607 0.2394,0.297 0.4004,0.3996c0.1925,0.1109 0.4005,0.1925 0.6171,0.2423c0.2494,0.0589 0.558,0.1113 0.919,0.1637c0.077,0.0133 0.1481,0.0499 0.2035,0.1049c0.0513,0.0551 0.0795,0.1277 0.0788,0.203c-0.0006,0.075 -0.0286,0.1472 -0.0788,0.2031c-0.0525,0.0578 -0.1255,0.093 -0.2035,0.0982c-0.3176,0.0363 -0.6331,0.0888 -0.9453,0.1572c-0.2314,0.0417 -0.4536,0.1237 -0.6564,0.2423c-0.1649,0.1034 -0.3022,0.245 -0.4004,0.4127c-0.118,0.2042 -0.2043,0.425 -0.2561,0.655c-0.059,0.262 -0.1247,0.5763 -0.1772,0.9562c-0.0096,0.0729 -0.0444,0.1401 -0.0985,0.19c-0.0532,0.0502 -0.1236,0.0783 -0.1969,0.0786c-0.074,-0.0027 -0.1443,-0.0331 -0.197,-0.0852z"/>
 </g>
</svg>