<svg width="40" height="40" viewBox="0 0 40 40" fill="none" xmlns="http://www.w3.org/2000/svg">
<rect x="13" y="15" width="16" height="11" rx="2" fill="#FED8AB"/>
<rect x="13" y="19" width="16" height="1" fill="#FFEED9"/>
<path d="M13 16.8351C13 15.4528 14.3687 14.4873 15.6708 14.9509L24.6708 18.1553C25.4678 18.4391 26 19.1935 26 20.0395V29.1649C26 30.5472 24.6313 31.5127 23.3292 31.0491L14.3292 27.8447C13.5322 27.5609 13 26.8065 13 25.9605V16.8351Z" fill="#FAB15C"/>
<circle cx="23" cy="24" r="1" fill="#FED8AB"/>
<circle cx="13" cy="14" r="6" fill="#FF9900"/>
<path d="M12.7899 16.9148C12.7359 16.865 12.7011 16.7977 12.6915 16.7249C12.6193 16.3384 12.5471 16.0175 12.4814 15.7555C12.4246 15.5251 12.3339 15.3044 12.2123 15.1005C12.1095 14.9399 11.9729 14.8035 11.8118 14.701C11.6194 14.5914 11.4113 14.5119 11.1948 14.4652C10.9519 14.4063 10.6434 14.3473 10.2823 14.2949C10.2039 14.2861 10.1315 14.2487 10.0788 14.1901C10.0533 14.1641 10.0333 14.1335 10.0197 14.0997C10.0062 14.066 9.99951 14.03 10 13.9936C9.99935 13.9184 10.0275 13.8457 10.0788 13.7906C10.1315 13.7319 10.2039 13.6946 10.2823 13.6857C10.598 13.6545 10.9115 13.6042 11.2211 13.5351C11.4523 13.4892 11.6741 13.4051 11.8775 13.2862C12.0421 13.1853 12.1795 13.0459 12.2779 12.8801C12.3939 12.6757 12.4781 12.4548 12.5274 12.2251C12.593 11.9697 12.6521 11.6488 12.7112 11.2754C12.7167 11.1995 12.7521 11.1289 12.8097 11.0789C12.8362 11.0524 12.868 11.0317 12.903 11.0181C12.9381 11.0046 12.9756 10.9985 13.0131 11.0003C13.0486 10.9999 13.0837 11.0067 13.1164 11.0202C13.1491 11.0337 13.1787 11.0537 13.2035 11.0789C13.2609 11.1298 13.2982 11.1995 13.3086 11.2754C13.3623 11.5997 13.4324 11.921 13.5186 12.2382C13.5722 12.4687 13.6607 12.6895 13.7812 12.8932C13.8839 13.0539 14.0206 13.1902 14.1816 13.2928C14.3741 13.4037 14.5821 13.4853 14.7987 13.5351C15.0481 13.594 15.3567 13.6464 15.7177 13.6988C15.7947 13.7121 15.8658 13.7487 15.9212 13.8037C15.9725 13.8588 16.0007 13.9314 16 14.0067C15.9994 14.0817 15.9714 14.1539 15.9212 14.2098C15.8687 14.2676 15.7957 14.3028 15.7177 14.308C15.4001 14.3443 15.0846 14.3968 14.7724 14.4652C14.541 14.5069 14.3188 14.5889 14.116 14.7075C13.9511 14.8109 13.8138 14.9525 13.7156 15.1202C13.5976 15.3244 13.5113 15.5452 13.4595 15.7752C13.4005 16.0372 13.3348 16.3515 13.2823 16.7314C13.2727 16.8043 13.2379 16.8715 13.1838 16.9214C13.1306 16.9716 13.0602 16.9997 12.9869 17C12.9129 16.9973 12.8426 16.9669 12.7899 16.9148Z" fill="#FEFEFE"/>
</svg>
