<svg width="40" height="40" viewBox="0 0 40 40" fill="none" xmlns="http://www.w3.org/2000/svg">
<rect x="8" y="9" width="14" height="14" rx="4" fill="#FEEBEA"/>
<rect x="18" y="17" width="14" height="14" rx="4" fill="#EBF5FA"/>
<path d="M21.7011 28L24.3211 21H25.6911L28.3011 28H27.0711L26.4111 26.27H23.5411L22.8911 28H21.7011ZM23.8611 25.29H26.0911L24.9711 22.24L23.8611 25.29Z" fill="#3498D0"/>
<path d="M16.384 14.4161H13.584C13.92 15.2801 14.392 16.0481 15.008 16.6961C15.584 16.0721 16.04 15.3121 16.384 14.4161ZM18.656 14.4161H17.504C17.072 15.5921 16.488 16.5681 15.752 17.3681C16.576 18.0001 17.584 18.4721 18.8 18.7441C18.568 18.9761 18.264 19.4241 18.12 19.6961C16.832 19.3681 15.792 18.8321 14.952 18.1201C14.08 18.8161 13.048 19.3361 11.832 19.7201C11.72 19.4721 11.424 19.0241 11.232 18.7921C12.416 18.4801 13.416 18.0241 14.224 17.4081C13.504 16.5841 12.952 15.5841 12.52 14.4161H11.376V13.4881H14.512V12.2241H15.48V13.4881H18.656V14.4161Z" fill="#F43630"/>
</svg>
