<svg width="26" height="24" xmlns="http://www.w3.org/2000/svg" fill="none">

 <g>
  <title>Layer 1</title>
  <rect id="svg_1" fill="#FEEBEA" rx="4" height="14" width="14" y="0.76476" x="0.94122"/>
  <rect id="svg_2" fill="#EBF5FA" rx="4" height="14" width="14" y="8.76476" x="10.94122"/>
  <path id="svg_3" fill="#3498D0" d="m14.64232,19.76476l2.62,-7l1.37,0l2.61,7l-1.23,0l-0.66,-1.73l-2.87,0l-0.65,1.73l-1.19,0zm2.16,-2.71l2.23,0l-1.12,-3.05l-1.11,3.05z"/>
  <path id="svg_4" fill="#F43630" d="m9.32522,6.18086l-2.8,0c0.336,0.864 0.808,1.632 1.424,2.28c0.576,-0.624 1.032,-1.384 1.376,-2.28zm2.272,0l-1.152,0c-0.432,1.176 -1.016,2.152 -1.752,2.952c0.824,0.632 1.832,1.104 3.048,1.376c-0.232,0.232 -0.536,0.68 -0.68,0.952c-1.288,-0.328 -2.328,-0.864 -3.168,-1.576c-0.872,0.696 -1.904,1.216 -3.12,1.6c-0.112,-0.248 -0.408,-0.696 -0.6,-0.928c1.184,-0.312 2.184,-0.768 2.992,-1.384c-0.72,-0.824 -1.272,-1.824 -1.704,-2.992l-1.144,0l0,-0.928l3.136,0l0,-1.264l0.968,0l0,1.264l3.176,0l0,0.928z"/>
 </g>
</svg>