<svg width="26" height="26" viewBox="0 0 26 26" fill="none" xmlns="http://www.w3.org/2000/svg">
<rect x="1.08203" y="2.16699" width="23.8333" height="17.6545" rx="1.72908" fill="#8DA8FF"/>
<rect x="3.55078" y="2.96973" width="18.0805" height="16.0496" rx="1.72908" fill="white"/>
<path d="M12.5898 2.96973H20.7228C21.6778 2.96973 22.4519 3.74386 22.4519 4.6988V17.2902C22.4519 18.2452 21.6778 19.0193 20.7228 19.0193H12.5898V2.96973Z" fill="#F5F5F5"/>
<rect x="4.37109" y="8.58691" width="7.39655" height="1.60496" rx="0.802478" fill="#C6C6C6"/>
<rect x="14.2266" y="8.58691" width="6.57471" height="8.82726" rx="1.72908" fill="#C6C6C6"/>
<rect width="6.57471" height="1.60496" rx="0.802478" transform="matrix(1 0 0 -1 14.2266 6.98242)" fill="#C6C6C6"/>
<rect x="4.37109" y="11.7969" width="7.39655" height="1.60496" rx="0.802478" fill="#C6C6C6"/>
<rect x="4.37109" y="5.37695" width="3.28736" height="1.60496" rx="0.802478" fill="#C6C6C6"/>
<rect x="4.37109" y="15.0068" width="7.39655" height="1.60496" rx="0.802478" fill="#C6C6C6"/>
<path d="M13.2891 19.0186H17.3983V23.8334L15.3437 22.389L13.2891 23.8334V19.0186Z" fill="#929AEE"/>
<rect x="12.5898" y="2.96973" width="4.93104" height="16.0496" fill="black" fill-opacity="0.07"/>
</svg>
