<svg width="26" height="26" viewBox="0 0 26 26" fill="none" xmlns="http://www.w3.org/2000/svg">
<path d="M5.38464 22.1413C5.30111 21.6729 5.34644 21.1902 5.51565 20.7462L6.35572 16.4626L2.91725 12.3098C2.53011 12.0308 2.20934 11.6677 1.97835 11.2469C1.89726 11.0545 1.85547 10.8473 1.85547 10.638C1.85547 10.4286 1.89726 10.2216 1.97835 10.0291C2.03769 9.83002 2.13585 9.64504 2.26715 9.48526C2.39844 9.32549 2.56013 9.1941 2.74253 9.099C3.15437 8.88549 3.61201 8.77908 4.07444 8.7891L8.60469 7.84708L11.1709 3.51906C11.3111 3.06029 11.5583 2.64244 11.8915 2.30108C12.0342 2.15577 12.2046 2.04166 12.3923 1.96551C12.5801 1.88935 12.7811 1.85288 12.9833 1.85833C13.1889 1.85114 13.3937 1.88664 13.5853 1.9628C13.7768 2.03897 13.9509 2.15408 14.0969 2.30108C14.4311 2.63786 14.6721 3.05798 14.7956 3.51906L17.3837 7.84708L21.8921 8.7891C22.3615 8.77907 22.8262 8.88539 23.2459 9.099C23.4283 9.1941 23.5899 9.32549 23.7212 9.48526C23.8525 9.64504 23.9507 9.83002 24.01 10.0291C24.0964 10.2202 24.1412 10.4278 24.1412 10.638C24.1412 10.8481 24.0964 11.0559 24.01 11.2469C23.7946 11.6719 23.4798 12.0368 23.093 12.3098L19.6545 16.4626L20.4727 20.7462C20.6482 21.1884 20.7011 21.6708 20.6256 22.1413C20.5507 22.5564 20.3247 22.9279 19.9924 23.1821C19.6642 23.4418 19.2488 23.5609 18.8351 23.5141C18.3641 23.424 17.922 23.2187 17.5469 22.9162L13.1798 20.5811L8.81279 22.9162C8.43768 23.2187 7.99542 23.424 7.52445 23.5141C7.11073 23.5609 6.69544 23.4418 6.36725 23.1821C6.13771 23.0932 5.93039 22.9536 5.76047 22.7736C5.59054 22.5937 5.46223 22.3777 5.38464 22.1413Z" fill="#FFDA15"/>
<path d="M9.19427 17.2107C9.15251 16.9867 9.17517 16.7559 9.25978 16.5436L9.67982 14.4948L7.96058 12.5087C7.76701 12.3753 7.60663 12.2017 7.49113 12.0004C7.45058 11.9084 7.42969 11.8093 7.42969 11.7092C7.42969 11.609 7.45058 11.51 7.49113 11.418C7.5208 11.3227 7.56988 11.2343 7.63553 11.1579C7.70117 11.0815 7.78202 11.0186 7.87322 10.9731C8.07914 10.871 8.30796 10.8201 8.53918 10.8249L10.8043 10.3744L12.0874 8.30446C12.1575 8.08505 12.2811 7.88521 12.4477 7.72195C12.519 7.65245 12.6043 7.59788 12.6981 7.56146C12.792 7.52504 12.8925 7.50759 12.9936 7.5102C13.0964 7.50676 13.1988 7.52374 13.2946 7.56017C13.3903 7.59659 13.4774 7.65164 13.5504 7.72195C13.7175 7.88302 13.838 8.08394 13.8998 8.30446L15.1938 10.3744L17.448 10.8249C17.6827 10.8201 17.9151 10.871 18.1249 10.9731C18.2161 11.0186 18.2969 11.0815 18.3626 11.1579C18.4282 11.2343 18.4773 11.3227 18.507 11.418C18.5502 11.5093 18.5725 11.6086 18.5725 11.7092C18.5725 11.8097 18.5502 11.909 18.507 12.0004C18.3993 12.2037 18.2418 12.3782 18.0485 12.5087L16.3292 14.4948L16.7383 16.5436C16.8261 16.755 16.8525 16.9857 16.8148 17.2107C16.7773 17.4093 16.6643 17.587 16.4982 17.7085C16.3341 17.8327 16.1264 17.8897 15.9195 17.8673C15.684 17.8242 15.463 17.7261 15.2754 17.5814L13.0919 16.4646L10.9083 17.5814C10.7208 17.7261 10.4997 17.8242 10.2642 17.8673C10.0573 17.8897 9.84967 17.8327 9.68558 17.7085C9.57081 17.666 9.46715 17.5992 9.38219 17.5132C9.29722 17.4271 9.23307 17.3238 9.19427 17.2107Z" fill="#FFB84E"/>
</svg>
