<svg width="48" height="48" viewBox="0 0 48 48" fill="none" xmlns="http://www.w3.org/2000/svg">
<path fill-rule="evenodd" clip-rule="evenodd" d="M20.7552 24.6666L21.176 24.2528H25.02C26.3021 24.2528 27.3415 23.2134 27.3415 21.9313V21.7571H33.2843C34.31 21.7571 35.1415 22.5886 35.1415 23.6142V30.2596C35.1415 31.1655 34.4928 31.9199 33.6346 32.0837L33.751 34.1536C33.7999 35.0215 32.7432 35.4812 32.1511 34.8496L29.5894 32.1167H22.6123C21.5867 32.1167 20.7552 31.2852 20.7552 30.2596V24.6666ZM24.7712 24.8648C24.342 24.8648 23.9942 25.2127 23.9942 25.6418C23.9942 26.0709 24.342 26.4188 24.7712 26.4188L31.052 26.4188C31.4812 26.4188 31.829 26.0709 31.829 25.6418C31.829 25.2127 31.4812 24.8648 31.052 24.8648L24.7712 24.8648ZM23.9942 28.7497C23.9942 28.3206 24.342 27.9727 24.7712 27.9727L31.052 27.9727C31.4812 27.9727 31.829 28.3206 31.829 28.7497C31.829 29.1788 31.4812 29.5267 31.052 29.5267L24.7712 29.5267C24.342 29.5267 23.9942 29.1788 23.9942 28.7497Z" fill="#B2C21D"/>
<path fill-rule="evenodd" clip-rule="evenodd" d="M13.7857 12.8572C12.76 12.8572 11.9286 13.6886 11.9286 14.7143V21.3597C11.9286 22.2653 12.5769 23.0196 13.4347 23.1837L13.3182 25.2537C13.2694 26.1217 14.3261 26.5814 14.9181 25.9497L17.4799 23.2168H24.4577C25.4834 23.2168 26.3148 22.3853 26.3148 21.3597V14.7143C26.3148 13.6886 25.4834 12.8572 24.4577 12.8572H13.7857ZM23.0752 16.7421C23.0752 16.313 22.7273 15.9651 22.2982 15.9651L16.0173 15.9651C15.5882 15.9651 15.2403 16.313 15.2403 16.7421C15.2403 17.1712 15.5882 17.5191 16.0173 17.5191L22.2982 17.5191C22.7273 17.5191 23.0752 17.1712 23.0752 16.7421ZM22.2982 19.0728C22.7273 19.0728 23.0752 19.4207 23.0752 19.8498C23.0752 20.2789 22.7273 20.6267 22.2982 20.6267L16.0173 20.6267C15.5882 20.6267 15.2403 20.2789 15.2403 19.8498C15.2403 19.4207 15.5882 19.0728 16.0173 19.0728L22.2982 19.0728Z" fill="#C6D726"/>
</svg>
