<svg width="25" height="24" xmlns="http://www.w3.org/2000/svg" fill="none">

 <g>
  <title>Layer 1</title>
  <path id="svg_1" fill="#B2C21D" d="m9.8266,13.24602l0.4208,-0.4138l3.844,0c1.2821,0 2.3215,-1.0394 2.3215,-2.3215l0,-0.1742l5.9428,0c1.0257,0 1.8572,0.8315 1.8572,1.8571l0,6.6454c0,0.9059 -0.6487,1.6603 -1.5069,1.8241l0.1164,2.0699c0.0489,0.8679 -1.0078,1.3276 -1.5999,0.696l-2.5617,-2.7329l-6.9771,0c-1.0256,0 -1.8571,-0.8315 -1.8571,-1.8571l0,-5.593zm4.016,0.1982c-0.4292,0 -0.777,0.3479 -0.777,0.777c0,0.4291 0.3478,0.777 0.777,0.777l6.2808,0c0.4292,0 0.777,-0.3479 0.777,-0.777c0,-0.4291 -0.3478,-0.777 -0.777,-0.777l-6.2808,0zm-0.777,3.8849c0,-0.4291 0.3478,-0.777 0.777,-0.777l6.2808,0c0.4292,0 0.777,0.3479 0.777,0.777c0,0.4291 -0.3478,0.777 -0.777,0.777l-6.2808,0c-0.4292,0 -0.777,-0.3479 -0.777,-0.777z" clip-rule="evenodd" fill-rule="evenodd"/>
  <path id="svg_2" fill="#C6D726" d="m2.8571,1.43662c-1.0257,0 -1.8571,0.8314 -1.8571,1.8571l0,6.6454c0,0.9056 0.6483,1.6599 1.5061,1.824l-0.1165,2.07c-0.0488,0.868 1.0079,1.3277 1.5999,0.696l2.5618,-2.7329l6.9778,0c1.0257,0 1.8571,-0.8315 1.8571,-1.8571l0,-6.6454c0,-1.0257 -0.8314,-1.8571 -1.8571,-1.8571l-10.672,0zm9.2895,3.8849c0,-0.4291 -0.3479,-0.777 -0.777,-0.777l-6.2809,0c-0.4291,0 -0.777,0.3479 -0.777,0.777c0,0.4291 0.3479,0.777 0.777,0.777l6.2809,0c0.4291,0 0.777,-0.3479 0.777,-0.777zm-0.777,2.3307c0.4291,0 0.777,0.3479 0.777,0.777c0,0.4291 -0.3479,0.7769 -0.777,0.7769l-6.2809,0c-0.4291,0 -0.777,-0.3478 -0.777,-0.7769c0,-0.4291 0.3479,-0.777 0.777,-0.777l6.2809,0z" clip-rule="evenodd" fill-rule="evenodd"/>
 </g>
</svg>