<svg width="26" height="26" viewBox="0 0 26 26" fill="none" xmlns="http://www.w3.org/2000/svg">
<rect x="9.91797" y="14.3325" width="4.45714" height="1.77639" rx="0.888196" fill="#EAD2AE"/>
<rect x="11.6992" y="4.5625" width="5.34857" height="3.55278" rx="1.77639" fill="#593927"/>
<rect x="5.46094" y="2.78613" width="6.24" height="5.32917" rx="1.83857" fill="#AF785C"/>
<path d="M5.4896 10.8731C5.4896 9.85768 6.31275 9.03452 7.32817 9.03452H15.1282C17.159 9.03452 18.8053 10.6808 18.8053 12.7117V14.2393C18.8053 15.2547 17.9822 16.0779 16.9667 16.0779H7.32817C6.31275 16.0779 5.4896 15.2547 5.4896 14.2393V10.8731Z" fill="#D2EFFF" stroke="#EAD2AE" stroke-width="1.83857"/>
<path d="M2.78516 18.0097C2.78516 15.9788 4.43147 14.3325 6.4623 14.3325H20.4078C22.9832 14.3325 25.0709 16.4202 25.0709 18.9955C25.0709 19.854 24.375 20.5499 23.5165 20.5499H4.62373C3.60831 20.5499 2.78516 19.7267 2.78516 18.7113V18.0097Z" fill="#EAD2AE"/>
<rect x="16.1562" y="17.8853" width="5.34857" height="5.32917" rx="2.66459" fill="#5B5555"/>
<rect x="4.57031" y="17.8853" width="5.34857" height="5.32917" rx="2.66459" fill="#5B5555"/>
<rect x="13.4766" y="8.11523" width="10.6583" height="1.78286" rx="0.891429" transform="rotate(90 13.4766 8.11523)" fill="#EAD2AE"/>
</svg>
